<svg width="20" height="21" viewBox="0 0 20 21" fill="none" xmlns="http://www.w3.org/2000/svg">
<path d="M18.4813 11.3375L19.6156 5.06562C19.6253 5.01168 19.6237 4.95629 19.6108 4.90302C19.5979 4.84975 19.574 4.79976 19.5406 4.75625C19.5044 4.71485 19.4597 4.68171 19.4096 4.65906C19.3594 4.63642 19.305 4.6248 19.25 4.625H3.80938L3.30313 1.80312C3.25693 1.54321 3.1208 1.30782 2.91856 1.13815C2.71633 0.968476 2.46086 0.875326 2.19688 0.875H0.5C0.400544 0.875 0.305161 0.914509 0.234835 0.984835C0.164509 1.05516 0.125 1.15054 0.125 1.25C0.125 1.34946 0.164509 1.44484 0.234835 1.51516C0.305161 1.58549 0.400544 1.625 0.5 1.625H2.19688C2.28433 1.62584 2.36875 1.65722 2.43551 1.71371C2.50228 1.77021 2.5472 1.84826 2.5625 1.93437L5.17813 16.3063C4.81042 16.5737 4.53238 16.9464 4.38067 17.375C4.22895 17.8037 4.21068 18.2683 4.32825 18.7075C4.44582 19.1468 4.69372 19.5401 5.03928 19.8356C5.38484 20.1312 5.81185 20.3151 6.26401 20.3631C6.71618 20.4112 7.1723 20.3211 7.57225 20.1048C7.9722 19.8884 8.29721 19.556 8.50446 19.1512C8.7117 18.7465 8.79145 18.2885 8.7332 17.8375C8.67494 17.3865 8.48142 16.9638 8.17813 16.625H14.5719C14.2285 17.009 14.0272 17.4991 14.0017 18.0136C13.9762 18.5281 14.128 19.0358 14.4318 19.4518C14.7355 19.8678 15.1729 20.167 15.6707 20.2994C16.1685 20.4318 16.6967 20.3894 17.167 20.1792C17.6373 19.969 18.0212 19.6038 18.2547 19.1446C18.4881 18.6854 18.5569 18.16 18.4495 17.6562C18.3422 17.1523 18.0652 16.7006 17.6649 16.3764C17.2646 16.0522 16.7651 15.8752 16.25 15.875H5.8625L5.30938 12.875H16.6344C17.0735 12.8756 17.499 12.722 17.8365 12.441C18.174 12.16 18.4022 11.7695 18.4813 11.3375ZM8 18.125C8 18.4217 7.91203 18.7117 7.7472 18.9584C7.58238 19.205 7.34811 19.3973 7.07403 19.5108C6.79994 19.6244 6.49834 19.6541 6.20737 19.5962C5.91639 19.5383 5.64912 19.3954 5.43934 19.1857C5.22956 18.9759 5.0867 18.7086 5.02882 18.4176C4.97094 18.1267 5.00065 17.8251 5.11418 17.551C5.22771 17.2769 5.41997 17.0426 5.66665 16.8778C5.91332 16.713 6.20333 16.625 6.5 16.625C6.89783 16.625 7.27936 16.783 7.56066 17.0643C7.84197 17.3456 8 17.7272 8 18.125ZM17.75 18.125C17.75 18.4217 17.662 18.7117 17.4972 18.9584C17.3324 19.205 17.0981 19.3973 16.824 19.5108C16.5499 19.6244 16.2483 19.6541 15.9574 19.5962C15.6664 19.5383 15.3991 19.3954 15.1893 19.1857C14.9796 18.9759 14.8367 18.7086 14.7788 18.4176C14.7209 18.1267 14.7507 17.8251 14.8642 17.551C14.9777 17.2769 15.17 17.0426 15.4166 16.8778C15.6633 16.713 15.9533 16.625 16.25 16.625C16.6478 16.625 17.0294 16.783 17.3107 17.0643C17.592 17.3456 17.75 17.7272 17.75 18.125ZM3.95 5.375H18.8L17.7406 11.1969C17.6962 11.4576 17.5605 11.6941 17.3579 11.8641C17.1553 12.0341 16.8989 12.1265 16.6344 12.125H5.17813L3.95 5.375Z" fill="black"/>
</svg>
