<svg width="20" height="20" viewBox="0 0 20 20" fill="none" xmlns="http://www.w3.org/2000/svg">
<path d="M19.75 10C19.75 8.07164 19.1782 6.18657 18.1068 4.58319C17.0355 2.97982 15.5127 1.73013 13.7312 0.992179C11.9496 0.254225 9.98919 0.061142 8.09787 0.437348C6.20656 0.813554 4.46928 1.74215 3.10571 3.10571C1.74215 4.46928 0.813554 6.20656 0.437348 8.09787C0.061142 9.98919 0.254225 11.9496 0.992179 13.7312C1.73013 15.5127 2.97982 17.0355 4.58319 18.1068C6.18657 19.1782 8.07164 19.75 10 19.75C12.5851 19.7475 15.0636 18.7195 16.8916 16.8916C18.7195 15.0636 19.7475 12.5851 19.75 10ZM10.75 18.2125V12.25H13C13.1989 12.25 13.3897 12.171 13.5303 12.0303C13.671 11.8897 13.75 11.6989 13.75 11.5C13.75 11.3011 13.671 11.1103 13.5303 10.9697C13.3897 10.829 13.1989 10.75 13 10.75H10.75V8.5C10.75 8.10218 10.908 7.72065 11.1893 7.43934C11.4706 7.15804 11.8522 7 12.25 7H13.75C13.9489 7 14.1397 6.92099 14.2803 6.78033C14.421 6.63968 14.5 6.44892 14.5 6.25C14.5 6.05109 14.421 5.86033 14.2803 5.71967C14.1397 5.57902 13.9489 5.5 13.75 5.5H12.25C11.4551 5.50248 10.6935 5.81934 10.1314 6.38142C9.56934 6.94349 9.25248 7.70512 9.25 8.5V10.75H7C6.80109 10.75 6.61033 10.829 6.46967 10.9697C6.32902 11.1103 6.25 11.3011 6.25 11.5C6.25 11.6989 6.32902 11.8897 6.46967 12.0303C6.61033 12.171 6.80109 12.25 7 12.25H9.25V18.2125C7.13575 18.0195 5.17728 17.0189 3.78198 15.4187C2.38667 13.8186 1.66195 11.7421 1.75855 9.62128C1.85515 7.50043 2.76564 5.49846 4.30064 4.03179C5.83563 2.56512 7.87696 1.74667 10 1.74667C12.1231 1.74667 14.1644 2.56512 15.6994 4.03179C17.2344 5.49846 18.1449 7.50043 18.2415 9.62128C18.3381 11.7421 17.6133 13.8186 16.218 15.4187C14.8227 17.0189 12.8643 18.0195 10.75 18.2125Z" fill="black"/>
</svg>
