<svg width="20" height="20" viewBox="0 0 20 20" fill="none" xmlns="http://www.w3.org/2000/svg">
<path d="M10 5.5C9.10998 5.5 8.23995 5.76392 7.49993 6.25839C6.75991 6.75285 6.18314 7.45566 5.84254 8.27792C5.50195 9.10019 5.41283 10.005 5.58647 10.8779C5.7601 11.7508 6.18868 12.5526 6.81802 13.182C7.44736 13.8113 8.24918 14.2399 9.12209 14.4135C9.99501 14.5872 10.8998 14.4981 11.7221 14.1575C12.5443 13.8169 13.2471 13.2401 13.7416 12.5001C14.2361 11.76 14.5 10.89 14.5 10C14.5 8.80653 14.0259 7.66193 13.182 6.81802C12.3381 5.97411 11.1935 5.5 10 5.5ZM10 13C9.40666 13 8.82664 12.8241 8.33329 12.4944C7.83994 12.1648 7.45542 11.6962 7.22836 11.1481C7.0013 10.5999 6.94189 9.99667 7.05764 9.41473C7.1734 8.83279 7.45912 8.29824 7.87868 7.87868C8.29824 7.45912 8.83279 7.1734 9.41473 7.05764C9.99667 6.94189 10.5999 7.0013 11.1481 7.22836C11.6962 7.45542 12.1648 7.83994 12.4944 8.33329C12.8241 8.82664 13 9.40666 13 10C12.9975 10.7949 12.6807 11.5565 12.1186 12.1186C11.5565 12.6807 10.7949 12.9975 10 13ZM14.125 0.625H5.875C4.48261 0.625 3.14726 1.17812 2.16269 2.16269C1.17812 3.14726 0.625 4.48261 0.625 5.875V14.125C0.625 15.5174 1.17812 16.8527 2.16269 17.8373C3.14726 18.8219 4.48261 19.375 5.875 19.375H14.125C15.5174 19.375 16.8527 18.8219 17.8373 17.8373C18.8219 16.8527 19.375 15.5174 19.375 14.125V5.875C19.375 4.48261 18.8219 3.14726 17.8373 2.16269C16.8527 1.17812 15.5174 0.625 14.125 0.625ZM17.875 14.125C17.875 14.6175 17.778 15.1051 17.5895 15.5601C17.4011 16.015 17.1249 16.4284 16.7766 16.7766C16.4284 17.1249 16.015 17.4011 15.5601 17.5895C15.1051 17.778 14.6175 17.875 14.125 17.875H5.875C5.38254 17.875 4.89491 17.778 4.43994 17.5895C3.98497 17.4011 3.57157 17.1249 3.22335 16.7766C2.87513 16.4284 2.59891 16.015 2.41045 15.5601C2.222 15.1051 2.125 14.6175 2.125 14.125V5.875C2.125 4.88044 2.52009 3.92661 3.22335 3.22335C3.92661 2.52009 4.88044 2.125 5.875 2.125H14.125C14.6175 2.125 15.1051 2.222 15.5601 2.41045C16.015 2.59891 16.4284 2.87513 16.7766 3.22335C17.1249 3.57157 17.4011 3.98497 17.5895 4.43994C17.778 4.89491 17.875 5.38254 17.875 5.875V14.125ZM16 5.125C16 5.3475 15.934 5.56501 15.8104 5.75002C15.6868 5.93502 15.5111 6.07922 15.3055 6.16436C15.1 6.24951 14.8738 6.27179 14.6555 6.22838C14.4373 6.18498 14.2368 6.07783 14.0795 5.9205C13.9222 5.76316 13.815 5.56271 13.7716 5.34448C13.7282 5.12625 13.7505 4.90005 13.8356 4.69448C13.9208 4.48891 14.065 4.31321 14.25 4.1896C14.435 4.06598 14.6525 4 14.875 4C15.1734 4 15.4595 4.11853 15.6705 4.3295C15.8815 4.54048 16 4.82663 16 5.125Z" fill="black"/>
</svg>
