<svg width="19" height="15" viewBox="0 0 19 15" fill="none" xmlns="http://www.w3.org/2000/svg">
<path d="M18.6797 7.5C18.6797 7.6554 18.618 7.80444 18.5081 7.91432C18.3982 8.02421 18.2492 8.08594 18.0938 8.08594H0.90625C0.75085 8.08594 0.601814 8.02421 0.49193 7.91432C0.382045 7.80444 0.320313 7.6554 0.320312 7.5C0.320312 7.3446 0.382045 7.19556 0.49193 7.08568C0.601814 6.9758 0.75085 6.91406 0.90625 6.91406H18.0938C18.2492 6.91406 18.3982 6.9758 18.5081 7.08568C18.618 7.19556 18.6797 7.3446 18.6797 7.5ZM0.90625 1.83594H18.0938C18.2492 1.83594 18.3982 1.7742 18.5081 1.66432C18.618 1.55444 18.6797 1.4054 18.6797 1.25C18.6797 1.0946 18.618 0.945564 18.5081 0.83568C18.3982 0.725795 18.2492 0.664063 18.0938 0.664062H0.90625C0.75085 0.664063 0.601814 0.725795 0.49193 0.83568C0.382045 0.945564 0.320313 1.0946 0.320312 1.25C0.320313 1.4054 0.382045 1.55444 0.49193 1.66432C0.601814 1.7742 0.75085 1.83594 0.90625 1.83594ZM18.0938 13.1641H0.90625C0.75085 13.1641 0.601814 13.2258 0.49193 13.3357C0.382045 13.4456 0.320313 13.5946 0.320312 13.75C0.320313 13.9054 0.382045 14.0544 0.49193 14.1643C0.601814 14.2742 0.75085 14.3359 0.90625 14.3359H18.0938C18.2492 14.3359 18.3982 14.2742 18.5081 14.1643C18.618 14.0544 18.6797 13.9054 18.6797 13.75C18.6797 13.5946 18.618 13.4456 18.5081 13.3357C18.3982 13.2258 18.2492 13.1641 18.0938 13.1641Z" fill="black"/>
</svg>
