<svg width="15" height="17" viewBox="0 0 15 17" fill="none" xmlns="http://www.w3.org/2000/svg">
<path d="M12.2564 3.02129C11.4324 2.03945 10.3387 1.32072 9.11045 0.954025C7.88225 0.587331 6.57349 0.58876 5.34609 0.958137C4.11869 1.32751 3.02652 2.04863 2.20468 3.03226C1.38285 4.0159 0.867431 5.2189 0.722187 6.49242C0.576942 7.76594 0.808248 9.05409 1.38749 10.1975C1.96673 11.341 2.86848 12.2895 3.98119 12.9257C5.09389 13.562 6.36872 13.8581 7.64795 13.7774C8.92718 13.6967 10.1547 13.2427 11.1786 12.4716L14.0671 15.914C14.1259 15.9841 14.2102 16.0279 14.3013 16.0359C14.3925 16.0439 14.4831 16.0153 14.5532 15.9565C14.6233 15.8977 14.6671 15.8134 14.6751 15.7223C14.6831 15.6311 14.6545 15.5405 14.5957 15.4704L11.7072 12.028C12.9328 10.8816 13.6727 9.30917 13.7749 7.634C13.877 5.95884 13.3336 4.30818 12.2564 3.02129ZM11.0049 11.7278C10.1163 12.4735 9.02648 12.9389 7.87336 13.0652C6.72023 13.1914 5.55556 12.973 4.52661 12.4373C3.49766 11.9017 2.65066 11.073 2.0927 10.0559C1.53475 9.03892 1.2909 7.87929 1.39201 6.72368C1.49311 5.56808 1.93462 4.46841 2.6607 3.56373C3.38678 2.65905 4.36482 1.99 5.47115 1.64117C6.57748 1.29235 7.7624 1.27942 8.87607 1.60403C9.98975 1.92864 10.9822 2.5762 11.7278 3.46482C12.7255 4.65736 13.2096 6.19682 13.0741 7.74574C12.9386 9.29465 12.1945 10.7267 11.0049 11.7278Z" fill="black"/>
</svg>
