<svg width="20" height="18" viewBox="0 0 20 18" fill="none" xmlns="http://www.w3.org/2000/svg">
<path d="M19.375 5.99063V5.9625C19.3675 5.94476 19.3643 5.92548 19.3656 5.90625H19.3563L18.0156 1.19063C17.9472 0.956983 17.8055 0.751543 17.6113 0.604666C17.4172 0.457788 17.1809 0.377266 16.9375 0.375H3.0625C2.81906 0.377266 2.58281 0.457788 2.38867 0.604666C2.19452 0.751543 2.05277 0.956983 1.98438 1.19063L0.643751 5.89688H0.634376C0.635743 5.9161 0.63253 5.93538 0.625001 5.95312V7.48125C0.624688 8.03591 0.761462 8.58205 1.02316 9.07109C1.28485 9.56013 1.66335 9.97692 2.125 10.2844V16.5C2.125 16.7984 2.24353 17.0845 2.45451 17.2955C2.66548 17.5065 2.95163 17.625 3.25 17.625H16.75C17.0484 17.625 17.3345 17.5065 17.5455 17.2955C17.7565 17.0845 17.875 16.7984 17.875 16.5V10.3031C18.3366 9.99567 18.7151 9.57888 18.9768 9.08984C19.2385 8.6008 19.3753 8.05466 19.375 7.5V6V5.99063ZM2.70625 1.39688C2.72974 1.32 2.77675 1.25242 2.84065 1.20365C2.90456 1.15488 2.98215 1.12737 3.0625 1.125H16.9375C17.0179 1.12737 17.0954 1.15488 17.1593 1.20365C17.2232 1.25242 17.2703 1.32 17.2938 1.39688L18.5031 5.625H1.49688L2.70625 1.39688ZM7.375 6.375H12.625V7.5C12.625 8.19619 12.3484 8.86387 11.8562 9.35616C11.3639 9.84844 10.6962 10.125 10 10.125C9.30381 10.125 8.63613 9.84844 8.14385 9.35616C7.65156 8.86387 7.375 8.19619 7.375 7.5V6.375ZM1.375 7.5V6.375H6.625V7.5C6.62253 8.19543 6.34517 8.86168 5.85343 9.35343C5.36168 9.84517 4.69543 10.1225 4 10.125C3.56109 10.1262 3.12898 10.0166 2.74375 9.80625C2.70667 9.7759 2.66568 9.75067 2.62188 9.73125C2.2399 9.49774 1.92452 9.16978 1.70613 8.77897C1.48774 8.38816 1.3737 7.94769 1.375 7.5ZM17.125 16.5C17.125 16.5995 17.0855 16.6948 17.0152 16.7652C16.9448 16.8355 16.8495 16.875 16.75 16.875H3.25C3.15054 16.875 3.05516 16.8355 2.98484 16.7652C2.91451 16.6948 2.875 16.5995 2.875 16.5V10.6781C3.2353 10.8102 3.61627 10.8768 4 10.875C4.61969 10.8751 5.22744 10.7045 5.75662 10.382C6.2858 10.0596 6.71598 9.59764 7 9.04688C7.28393 9.59778 7.71407 10.0599 8.24325 10.3825C8.77244 10.7051 9.38024 10.8757 10 10.8757C10.6198 10.8757 11.2276 10.7051 11.7567 10.3825C12.2859 10.0599 12.7161 9.59778 13 9.04688C13.284 9.59764 13.7142 10.0596 14.2434 10.382C14.7726 10.7045 15.3803 10.8751 16 10.875C16.3837 10.8768 16.7647 10.8102 17.125 10.6781V16.5ZM17.3781 9.73125C17.3343 9.75067 17.2933 9.7759 17.2562 9.80625C16.871 10.0166 16.4389 10.1262 16 10.125C15.3046 10.1225 14.6383 9.84517 14.1466 9.35343C13.6548 8.86168 13.3775 8.19543 13.375 7.5V6.375H18.625V7.5C18.6263 7.94769 18.5123 8.38816 18.2939 8.77897C18.0755 9.16978 17.7601 9.49774 17.3781 9.73125Z" fill="black"/>
</svg>
