<svg width="22" height="16" viewBox="0 0 22 16" fill="none" xmlns="http://www.w3.org/2000/svg">
<path d="M21.8843 6.25C21.8864 6.22769 21.8832 6.20519 21.8749 6.18438V6.16562C21.873 6.14569 21.8666 6.12645 21.8562 6.10938L20.5437 2.8375C20.4612 2.62836 20.3181 2.44871 20.1326 2.32172C19.9471 2.19472 19.7278 2.1262 19.503 2.125H15.8843V1C15.8843 0.900544 15.8448 0.805161 15.7744 0.734835C15.7041 0.664509 15.6087 0.625 15.5093 0.625H1.25928C0.960909 0.625 0.674761 0.743526 0.463782 0.954505C0.252804 1.16548 0.134277 1.45163 0.134277 1.75V12.25C0.134277 12.5484 0.252804 12.8345 0.463782 13.0455C0.674761 13.2565 0.960909 13.375 1.25928 13.375H2.7874C2.87935 13.998 3.19223 14.5673 3.66896 14.9788C4.14569 15.3903 4.75449 15.6168 5.38428 15.6168C6.01407 15.6168 6.62287 15.3903 7.0996 14.9788C7.57633 14.5673 7.88921 13.998 7.98115 13.375H14.0374C14.1293 13.998 14.4422 14.5673 14.919 14.9788C15.3957 15.3903 16.0045 15.6168 16.6343 15.6168C17.2641 15.6168 17.8729 15.3903 18.3496 14.9788C18.8263 14.5673 19.1392 13.998 19.2312 13.375H20.7593C21.0576 13.375 21.3438 13.2565 21.5548 13.0455C21.7658 12.8345 21.8843 12.5484 21.8843 12.25V6.25ZM19.503 2.875C19.5776 2.87515 19.6504 2.89753 19.7122 2.93928C19.774 2.98103 19.8219 3.04025 19.8499 3.10938L20.9562 5.875H15.8843V2.875H19.503ZM1.25928 1.375H15.1343V8.125H0.884277V1.75C0.884277 1.65054 0.923786 1.55516 0.994112 1.48483C1.06444 1.41451 1.15982 1.375 1.25928 1.375ZM0.884277 12.25V8.875H15.1343V10.8438C14.8399 11.0504 14.5908 11.315 14.4022 11.6213C14.2136 11.9276 14.0894 12.2691 14.0374 12.625H7.98115C7.88921 12.002 7.57633 11.4327 7.0996 11.0212C6.62287 10.6097 6.01407 10.3832 5.38428 10.3832C4.75449 10.3832 4.14569 10.6097 3.66896 11.0212C3.19223 11.4327 2.87935 12.002 2.7874 12.625H1.25928C1.15982 12.625 1.06444 12.5855 0.994112 12.5152C0.923786 12.4448 0.884277 12.3495 0.884277 12.25ZM5.38428 14.875C5.01344 14.875 4.65093 14.765 4.34258 14.559C4.03424 14.353 3.79392 14.0601 3.652 13.7175C3.51009 13.3749 3.47296 12.9979 3.5453 12.6342C3.61765 12.2705 3.79623 11.9364 4.05845 11.6742C4.32068 11.412 4.65477 11.2334 5.01848 11.161C5.3822 11.0887 5.7592 11.1258 6.10181 11.2677C6.44442 11.4096 6.73726 11.65 6.94328 11.9583C7.14931 12.2666 7.25928 12.6292 7.25928 13C7.25681 13.4965 7.05848 13.972 6.70738 14.3231C6.35628 14.6742 5.8808 14.8725 5.38428 14.875ZM16.6343 14.875C16.2634 14.875 15.9009 14.765 15.5926 14.559C15.2842 14.353 15.0439 14.0601 14.902 13.7175C14.7601 13.3749 14.723 12.9979 14.7953 12.6342C14.8677 12.2705 15.0462 11.9364 15.3085 11.6742C15.5707 11.412 15.9048 11.2334 16.2685 11.161C16.6322 11.0887 17.0092 11.1258 17.3518 11.2677C17.6944 11.4096 17.9873 11.65 18.1933 11.9583C18.3993 12.2666 18.5093 12.6292 18.5093 13C18.5068 13.4965 18.3085 13.972 17.9574 14.3231C17.6063 14.6742 17.1308 14.8725 16.6343 14.875ZM21.1343 12.25C21.1343 12.3495 21.0948 12.4448 21.0244 12.5152C20.9541 12.5855 20.8587 12.625 20.7593 12.625H19.2312C19.1429 11.9996 18.8313 11.4273 18.354 11.0138C17.8767 10.6002 17.2658 10.3733 16.6343 10.375C16.38 10.3736 16.127 10.4115 15.8843 10.4875V6.625H21.1343V12.25Z" fill="black"/>
</svg>
