<svg width="22" height="19" viewBox="0 0 22 19" fill="none" xmlns="http://www.w3.org/2000/svg">
<path d="M21.1938 3.45925C21.1364 3.32275 21.0399 3.20629 20.9164 3.12454C20.793 3.04279 20.6481 2.99942 20.5 2.99988H17.65C17.308 2.40318 16.8332 1.89321 16.2625 1.50947C15.6917 1.12572 15.0403 0.878501 14.3586 0.78695C13.677 0.695399 12.9834 0.761975 12.3316 0.981522C11.6798 1.20107 11.0873 1.56769 10.6 2.053C10.1733 2.46904 9.8341 2.96616 9.60226 3.51515C9.37043 4.06415 9.25066 4.65394 9.25001 5.24988V5.82175C5.43438 4.828 2.31251 1.753 2.28438 1.7155C2.18632 1.61903 2.0636 1.55138 1.92967 1.51996C1.79574 1.48854 1.65574 1.49457 1.52501 1.53738C1.39468 1.57885 1.27798 1.65475 1.18722 1.75706C1.09646 1.85937 1.03502 1.98429 1.00938 2.11863C0.193756 6.63738 1.55313 9.6655 2.83751 11.4093C3.48171 12.291 4.26358 13.0634 5.15313 13.6968C3.71876 15.3186 1.50626 16.1624 1.48751 16.1718C1.3817 16.211 1.28612 16.2736 1.20788 16.3549C1.12963 16.4362 1.07074 16.5341 1.0356 16.6414C1.00046 16.7486 0.989964 16.8624 1.0049 16.9742C1.01984 17.0861 1.05983 17.1931 1.12188 17.2874C1.19688 17.3999 1.47813 17.7655 2.16251 18.1124C3.01563 18.5343 4.14063 18.7499 5.50001 18.7499C12.1094 18.7499 17.6406 13.6593 18.2031 7.10613L21.0344 4.28425C21.1361 4.17582 21.2051 4.04079 21.2333 3.89479C21.2615 3.74879 21.2478 3.59779 21.1938 3.45925ZM16.9469 6.24363C16.8162 6.37321 16.7392 6.54729 16.7313 6.73113C16.3469 12.628 11.4156 17.2499 5.50001 17.2499C4.50626 17.2499 3.81251 17.1186 3.32501 16.9593C4.40313 16.378 5.90313 15.3655 6.87813 13.9124C6.93473 13.8244 6.9723 13.7256 6.98845 13.6223C7.0046 13.519 6.99895 13.4134 6.97188 13.3124C6.94459 13.2103 6.89631 13.1151 6.83012 13.0328C6.76394 12.9504 6.68131 12.8828 6.58751 12.8343C6.57813 12.8249 5.19063 12.103 4.00001 10.4624C2.65001 8.60613 2.07813 6.34676 2.30313 3.7405C3.78438 4.95926 6.61563 6.94675 9.87813 7.49051C9.98586 7.50781 10.0961 7.50169 10.2012 7.47257C10.3064 7.44345 10.404 7.39201 10.4875 7.32175C10.5691 7.25034 10.6347 7.16247 10.6799 7.0639C10.7252 6.96534 10.7491 6.85833 10.75 6.74988V5.24988C10.7514 4.56175 10.9893 3.89502 11.4239 3.36146C11.8584 2.82791 12.4632 2.45996 13.1368 2.3193C13.8104 2.17865 14.5119 2.27384 15.1236 2.58892C15.7354 2.904 16.2202 3.41981 16.4969 4.04988C16.5567 4.1839 16.654 4.29773 16.7771 4.37759C16.9003 4.45745 17.0439 4.49993 17.1906 4.49988H18.6906L16.9469 6.24363Z" fill="black"/>
</svg>
